HIERARCHY
ROOT Hips
{
	OFFSET	0.00	0.00	0.00
	CHANNELS 6 Xposition Yposition Zposition Zrotation Xrotation Yrotation
	JOINT LeftUpLeg
	{
		OFFSET	 0.126116	-0.065224	 0.014019
		CHANNELS 3 Zrotation Xrotation Yrotation
		JOINT LeftLeg
		{
			OFFSET	 0.000000	 0.569914	 0.000000
			CHANNELS 3 Zrotation Xrotation Yrotation
			JOINT LeftFoot
			{
				OFFSET	 0.000000	 0.544423	 0.000000
				CHANNELS 3 Zrotation Xrotation Yrotation
				JOINT LeftToeBase
				{
					OFFSET	 0.000000	 0.207117	 0.000000
					CHANNELS 3 Zrotation Xrotation Yrotation
					End Site
					{
						OFFSET	 0.000000	 0.207117	 0.000000
					}
				}
			}
		}
	}
	JOINT RightUpLeg
	{
		OFFSET	-0.124023	-0.065224	 0.008373
		CHANNELS 3 Zrotation Xrotation Yrotation
		JOINT RightLeg
		{
			OFFSET	 0.000000	 0.570047	 0.000000
			CHANNELS 3 Zrotation Xrotation Yrotation
			JOINT RightFoot
			{
				OFFSET	 0.000000	 0.544354	 0.000000
				CHANNELS 3 Zrotation Xrotation Yrotation
				JOINT RightToeBase
				{
					OFFSET	 0.000000	 0.207540	 0.000000
					CHANNELS 3 Zrotation Xrotation Yrotation
					End Site
					{
						OFFSET	 0.000000	 0.207540	 0.000000
					}
				}
			}
		}
	}
	JOINT Spine
	{
		OFFSET	 0.000184	 0.117403	 0.007763
		CHANNELS 3 Zrotation Xrotation Yrotation
		JOINT Spine1
		{
			OFFSET	 0.000000	 0.137269	 0.000000
			CHANNELS 3 Zrotation Xrotation Yrotation
			JOINT Spine2
			{
				OFFSET	 0.000000	 0.156879	 0.000000
				CHANNELS 3 Zrotation Xrotation Yrotation
				JOINT LeftShoulder
				{
					OFFSET	 0.080501	 0.160143	 0.002496
					CHANNELS 3 Zrotation Xrotation Yrotation
					JOINT LeftArm
					{
						OFFSET	 0.000000	 0.164363	 0.000000
						CHANNELS 3 Zrotation Xrotation Yrotation
						JOINT LeftForeArm
						{
							OFFSET	 0.000000	 0.364576	 0.000000
							CHANNELS 3 Zrotation Xrotation Yrotation
							JOINT LeftHand
							{
								OFFSET	 0.000000	 0.360812	 0.000000
								CHANNELS 3 Zrotation Xrotation Yrotation
								JOINT LeftHandIndex1
								{
									OFFSET	 0.000000	 0.086006	 0.000000
									CHANNELS 3 Zrotation Xrotation Yrotation
									JOINT LeftHandIndex2
									{
										OFFSET	 0.000000	 0.047237	 0.000000
										CHANNELS 3 Zrotation Xrotation Yrotation
										JOINT LeftHandIndex3
										{
											OFFSET	-0.004284	 0.038165	 0.000551
											CHANNELS 3 Zrotation Xrotation Yrotation
											End Site
											{
												OFFSET	-0.004284	 0.038165	 0.000551
											}
										}
									}
								}
							}
						}
					}
				}
				JOINT Neck
				{
					OFFSET	 0.000000	 0.176489	 0.000000
					CHANNELS 3 Zrotation Xrotation Yrotation
					JOINT Head
					{
						OFFSET	 0.000000	 0.077941	 0.001747
						CHANNELS 3 Zrotation Xrotation Yrotation
						End Site
						{
							OFFSET	 0.000000	 0.077941	 0.001747
						}
					}
				}
				JOINT RightShoulder
				{
					OFFSET	-0.080363	 0.159706	-0.000306
					CHANNELS 3 Zrotation Xrotation Yrotation
					JOINT RightArm
					{
						OFFSET	 0.000000	 0.164196	 0.000000
						CHANNELS 3 Zrotation Xrotation Yrotation
						JOINT RightForeArm
						{
							OFFSET	 0.000000	 0.365611	 0.000000
							CHANNELS 3 Zrotation Xrotation Yrotation
							JOINT RightHand
							{
								OFFSET	 0.000000	 0.360648	 0.000000
								CHANNELS 3 Zrotation Xrotation Yrotation
								JOINT RightHandIndex1
								{
									OFFSET	 0.000000	 0.069977	 0.000000
									CHANNELS 3 Zrotation Xrotation Yrotation
									JOINT RightHandIndex2
									{
										OFFSET	 0.000000	 0.052305	 0.000000
										CHANNELS 3 Zrotation Xrotation Yrotation
										JOINT RightHandIndex3
										{
											OFFSET	 0.009002	 0.042196	 0.000782
											CHANNELS 3 Zrotation Xrotation Yrotation
											End Site
											{
												OFFSET	 0.009002	 0.042196	 0.000782
											}
										}
									}
								}
							}
						}
					}
				}
			}
		}
	}
}
MOTION
Frames:    5
Frame Time: 0.03333334
-0.005968	 1.268701	-0.020992	 1.019181	 1.176354	-179.589500	-176.003400	 5.946622	-20.641480	 3.650309	-17.873870	 6.358532	 3.407453	 70.754530	-3.012799	 1.331492	 28.938720	-2.729976	 176.763100	 5.234171	 27.010460	-5.034471	-16.146290	-4.701692	 7.671482	 70.246950	-7.000128	-1.322004	 28.804140	 2.093684	-0.793573	 2.368039	 1.809138	-1.223237	 1.514910	 0.358485	-0.933984	-0.974362	-4.170830	-113.437100	 5.226441	 92.900880	 20.478560	 52.843870	 26.604260	 4.790753	-0.247645	-0.073483	 5.786956	-10.586890	-7.813393	-6.580301	 5.266122	 0.000000	 0.000000	 0.000000	 0.000000	 0.000000	 0.000000	 0.000000	 4.403035	-0.500733	-0.103926	 2.565327	 2.183119	 0.950844	 114.208800	-4.381058	-88.443980	-52.032000	 6.563715	 58.760770	-59.390720	-1.939393	-1.047509	-43.553180	-64.409580	-25.408310	-0.359123	 10.564880	 0.744393	 11.977560	 9.300053	-2.092350	-8.358969	 3.141551	 0.104863
-0.004968	 1.268827	-0.019922	 0.939479	 1.160094	-179.272000	-176.043300	 6.037883	-20.359290	 3.625081	-17.758330	 6.500895	 3.800444	 70.635730	-3.437173	 1.331492	 28.938720	-2.729976	 176.692900	 5.310041	 27.315590	-5.040488	-16.164500	-4.440969	 8.284752	 70.221920	-7.738987	-1.321139	 28.791740	 2.116648	-0.804753	 2.339325	 1.647482	-1.150069	 1.586897	 0.198962	-0.908216	-1.080760	-4.061188	-113.435400	 5.216828	 92.873600	 19.701290	 52.471500	 27.497030	 4.786261	-0.247383	-0.073510	 5.064192	-11.110570	-8.657349	-6.580301	 5.266122	 0.000000	 0.000000	 0.000000	 0.000000	 0.000000	 0.000000	 0.000000	 4.368326	-0.508438	 0.002085	 2.172474	 2.178957	 1.190633	 114.222400	-4.469047	-88.376930	-52.977470	 7.105662	 58.726830	-56.721410	-1.883871	-0.958429	-39.644770	-73.621410	-19.463520	-0.359157	 10.565840	 0.744401	 11.977570	 9.300999	-2.092551	-8.358977	 3.142031	 0.104826
-0.004178	 1.268927	-0.018550	 0.872471	 1.161847	-179.819700	-176.006200	 5.905358	-20.838170	 3.582137	-17.561120	 5.884333	 2.041835	 70.548710	-1.590888	 1.331492	 28.938720	-2.729976	 176.741000	 5.493348	 26.750190	-5.066426	-16.243130	-4.989272	 6.791175	 70.278450	-6.149292	-1.319181	 28.763930	 2.164513	-0.806250	 2.390796	 1.662959	-1.114867	 1.525343	 0.260303	-0.864706	-0.947008	-3.880299	-113.435300	 5.252176	 92.887420	 18.328110	 52.271090	 28.450860	 4.783822	-0.247323	-0.073513	 3.697436	-10.109840	-8.781396	-6.580301	 5.266122	 0.000000	 0.000000	 0.000000	 0.000000	 0.000000	 0.000000	 0.000000	 4.477582	-0.508198	 0.052962	 2.045635	 2.228689	 1.363961	 114.233600	-4.541950	-88.321380	-52.908600	 8.559378	 57.191600	-61.469670	-1.979709	-1.118575	-37.462910	-62.573670	-19.231120	-0.359232	 10.567860	 0.744419	 11.977590	 9.302987	-2.092978	-8.358996	 3.143041	 0.104752
-0.003274	 1.269051	-0.016871	 0.799676	 1.162390	 179.582300	-175.963900	 5.749012	-21.359870	 3.529751	-17.320150	 5.193696	 0.094394	 70.417700	 0.453105	 1.331492	 28.938720	-2.729976	 176.809100	 5.690386	 26.133340	-5.092245	-16.321310	-5.582775	 5.147609	 70.324750	-4.414193	-1.317016	 28.733590	 2.216725	-0.807576	 2.444338	 1.617581	-1.041738	 1.487707	 0.264053	-0.832628	-0.814587	-3.683058	-113.435200	 5.290723	 92.902480	 16.489110	 52.056720	 29.769990	 4.779649	-0.247082	-0.073554	 2.368272	-9.142266	-9.022265	-6.580301	 5.266122	 0.000000	 0.000000	 0.000000	 0.000000	 0.000000	 0.000000	 0.000000	 4.596791	-0.507825	 0.108474	 1.907017	 2.282475	 1.553279	 114.245900	-4.621505	-88.260710	-53.067280	 10.034220	 55.520790	-67.587210	-2.083034	-1.335668	-35.023400	-50.515030	-20.026480	-0.359313	 10.570060	 0.744439	 11.977620	 9.305160	-2.093444	-8.359017	 3.144142	 0.104671
-0.002408	 1.269164	-0.015276	 0.734859	 1.161841	 179.051000	-175.925800	 5.605404	-21.822480	 3.480474	-17.092850	 4.565122	-1.652154	 70.272710	 2.287261	 1.331492	 28.938720	-2.729976	 176.879000	 5.865702	 25.585440	-5.114228	-16.387800	-6.105951	 3.681635	 70.351340	-2.875596	-1.315067	 28.706660	 2.263075	-0.808972	 2.490306	 1.556760	-0.968368	 1.474255	 0.246447	-0.807825	-0.706667	-3.508016	-113.435100	 5.324950	 92.915890	 14.739600	 51.884090	 31.037330	 4.774445	-0.246720	-0.073566	 1.245342	-8.344600	-9.266980	-6.580301	 5.266122	 0.000000	 0.000000	 0.000000	 0.000000	 0.000000	 0.000000	 0.000000	 4.702643	-0.507397	 0.157765	 1.783733	 2.329887	 1.721512	 114.256900	-4.692111	-88.206830	-53.401420	 11.271550	 54.000130	-73.346110	-2.158625	-1.548919	-32.714740	-39.884740	-21.181470	-0.359385	 10.572010	 0.744456	 11.977640	 9.307086	-2.093858	-8.359035	 3.145120	 0.104599
